<svg width="17" height="18" viewBox="0 0 17 18" fill="none" xmlns="http://www.w3.org/2000/svg">
<g clip-path="url(#clip0_99_7277)">
<path d="M9.4225 4.99424L8.68425 5.62699C8.17196 5.13543 7.54555 4.76203 6.8492 4.55083L7.13274 3.62387C8.00683 3.88947 8.78985 4.3662 9.4225 4.99424ZM9.85418 5.47513L9.11801 6.10612C9.54076 6.64468 9.8454 7.21547 9.99211 7.90859L10.9788 7.97318C10.8174 7.04016 10.4215 6.18644 9.85418 5.47513ZM6.21744 4.40753L6.50341 3.47265C5.41364 3.28081 4.34091 3.41354 3.38569 3.81735L3.79014 4.69885C4.54947 4.39266 5.34559 4.28354 6.21744 4.40753ZM7.04396 14.2412L6.61866 13.3513C4.09437 13.9761 1.22575 12.3302 0.969057 9.16099L0 9.183C0.308207 13.4077 4.30144 15.0937 7.04396 14.2412ZM0.980847 8.51449C1.11348 7.01261 1.97659 5.7175 3.21176 4.98748L2.8059 4.10291C1.23283 4.99504 0.137604 6.63526 0.00704838 8.5366L0.980847 8.51449ZM6.80954 9.71752L16.4035 8.97456V8.71614L6.6803 8.0378C7.05899 8.52327 7.05476 9.09368 6.80951 9.71755L6.80954 9.71752ZM6.51879 8.84538C6.51879 8.15166 5.76269 7.71575 5.16102 8.06262C4.55941 8.40947 4.55941 9.28129 5.16102 9.62814C5.76269 9.97498 6.51879 9.53907 6.51879 8.84538Z" fill="#001D42"/>
</g>
<defs>
<clipPath id="clip0_99_7277">
<rect width="16.4035" height="16.4035" fill="white" transform="translate(0 0.719299)"/>
</clipPath>
</defs>
</svg>
