<svg width="89" height="88" viewBox="0 0 89 88" fill="none" xmlns="http://www.w3.org/2000/svg">
<path d="M45.1596 43.62C45.1296 43.62 45.1096 43.62 45.0796 43.62C45.0296 43.61 44.9596 43.61 44.8996 43.62C41.9996 43.53 39.8096 41.25 39.8096 38.44C39.8096 35.58 42.1396 33.25 44.9996 33.25C47.8596 33.25 50.1896 35.58 50.1896 38.44C50.1796 41.25 47.9796 43.53 45.1896 43.62C45.1796 43.62 45.1696 43.62 45.1596 43.62ZM44.9996 34.75C42.9696 34.75 41.3096 36.41 41.3096 38.44C41.3096 40.44 42.8696 42.05 44.8596 42.12C44.9096 42.11 45.0496 42.11 45.1796 42.12C47.1396 42.03 48.6796 40.42 48.6896 38.44C48.6896 36.41 47.0296 34.75 44.9996 34.75Z" fill="#0C0C0C"/>
<path d="M45.1696 54.55C43.2096 54.55 41.2396 54.05 39.7496 53.05C38.3596 52.13 37.5996 50.87 37.5996 49.5C37.5996 48.13 38.3596 46.86 39.7496 45.93C42.7496 43.94 47.6096 43.94 50.5896 45.93C51.9696 46.85 52.7396 48.11 52.7396 49.48C52.7396 50.85 51.9796 52.12 50.5896 53.05C49.0896 54.05 47.1296 54.55 45.1696 54.55ZM40.5796 47.19C39.6196 47.83 39.0996 48.65 39.0996 49.51C39.0996 50.36 39.6296 51.18 40.5796 51.81C43.0696 53.48 47.2696 53.48 49.7596 51.81C50.7196 51.17 51.2396 50.35 51.2396 49.49C51.2396 48.64 50.7096 47.82 49.7596 47.19C47.2696 45.53 43.0696 45.53 40.5796 47.19Z" fill="#0C0C0C"/>
</svg>
