<svg width="89" height="88" viewBox="0 0 89 88" fill="none" xmlns="http://www.w3.org/2000/svg">
<path d="M47.7 54.75H42.3C37.36 54.75 35.26 52.64 35.26 47.71V43.22C35.26 42.81 35.6 42.47 36.01 42.47C36.42 42.47 36.76 42.81 36.76 43.22V47.71C36.76 51.8 38.21 53.25 42.3 53.25H47.69C51.78 53.25 53.23 51.8 53.23 47.71V43.22C53.23 42.81 53.57 42.47 53.98 42.47C54.39 42.47 54.73 42.81 54.73 43.22V47.71C54.74 52.64 52.63 54.75 47.7 54.75Z" fill="#0C0C0C"/>
<path d="M45 44.75C43.9 44.75 42.9 44.32 42.19 43.53C41.48 42.74 41.15 41.71 41.26 40.61L41.93 33.93C41.97 33.55 42.29 33.25 42.68 33.25H47.35C47.74 33.25 48.06 33.54 48.1 33.93L48.77 40.61C48.88 41.71 48.55 42.74 47.84 43.53C47.1 44.32 46.1 44.75 45 44.75ZM43.35 34.75L42.75 40.76C42.68 41.43 42.88 42.06 43.3 42.52C44.15 43.46 45.85 43.46 46.7 42.52C47.12 42.05 47.32 41.42 47.25 40.76L46.65 34.75H43.35Z" fill="#0C0C0C"/>
<path d="M51.31 44.75C49.28 44.75 47.47 43.11 47.26 41.09L46.56 34.08C46.54 33.87 46.61 33.66 46.75 33.5C46.89 33.34 47.09 33.25 47.31 33.25H50.36C53.3 33.25 54.67 34.48 55.08 37.5L55.36 40.28C55.48 41.46 55.12 42.58 54.35 43.43C53.58 44.28 52.5 44.75 51.31 44.75ZM48.14 34.75L48.76 40.94C48.89 42.19 50.05 43.25 51.31 43.25C52.07 43.25 52.75 42.96 53.24 42.43C53.72 41.9 53.94 41.19 53.87 40.43L53.59 37.68C53.28 35.42 52.55 34.75 50.36 34.75H48.14Z" fill="#0C0C0C"/>
<path d="M38.64 44.75C37.45 44.75 36.37 44.28 35.6 43.43C34.83 42.58 34.47 41.46 34.59 40.28L34.86 37.53C35.28 34.48 36.65 33.25 39.59 33.25H42.64C42.85 33.25 43.05 33.34 43.2 33.5C43.35 33.66 43.41 33.87 43.39 34.08L42.69 41.09C42.48 43.11 40.67 44.75 38.64 44.75ZM39.59 34.75C37.4 34.75 36.67 35.41 36.35 37.7L36.08 40.43C36 41.19 36.23 41.9 36.71 42.43C37.19 42.96 37.87 43.25 38.64 43.25C39.9 43.25 41.07 42.19 41.19 40.94L41.81 34.75H39.59Z" fill="#0C0C0C"/>
<path d="M47.5 54.75H42.5C42.09 54.75 41.75 54.41 41.75 54V51.5C41.75 49.4 42.9 48.25 45 48.25C47.1 48.25 48.25 49.4 48.25 51.5V54C48.25 54.41 47.91 54.75 47.5 54.75ZM43.25 53.25H46.75V51.5C46.75 50.24 46.26 49.75 45 49.75C43.74 49.75 43.25 50.24 43.25 51.5V53.25Z" fill="#0C0C0C"/>
</svg>
