<svg width="89" height="88" viewBox="0 0 89 88" fill="none" xmlns="http://www.w3.org/2000/svg">
<path d="M44.5 53.75C38.85 53.75 34.25 49.15 34.25 43.5C34.25 37.85 38.85 33.25 44.5 33.25C50.15 33.25 54.75 37.85 54.75 43.5C54.75 49.15 50.15 53.75 44.5 53.75ZM44.5 34.75C39.67 34.75 35.75 38.68 35.75 43.5C35.75 48.32 39.67 52.25 44.5 52.25C49.33 52.25 53.25 48.32 53.25 43.5C53.25 38.68 49.33 34.75 44.5 34.75Z" fill="#0C0C0C"/>
<path d="M55 54.75C54.81 54.75 54.62 54.68 54.47 54.53L52.47 52.53C52.18 52.24 52.18 51.76 52.47 51.47C52.76 51.18 53.24 51.18 53.53 51.47L55.53 53.47C55.82 53.76 55.82 54.24 55.53 54.53C55.38 54.68 55.19 54.75 55 54.75Z" fill="#0C0C0C"/>
</svg>
