<svg width="17" height="17" viewBox="0 0 17 17" fill="none" xmlns="http://www.w3.org/2000/svg">
<mask id="mask0_99_7246" style="mask-type:alpha" maskUnits="userSpaceOnUse" x="0" y="0" width="16" height="16">
<path d="M13.6696 4.10088V8.20175H2.73389M8.20172 4.10088V12.3026M2.73389 4.10088V12.3026" stroke="white" stroke-width="0.916667" stroke-linecap="round" stroke-linejoin="round"/>
<path d="M15.0365 2.73392C15.0365 3.09646 14.8925 3.44415 14.6362 3.7005C14.3798 3.95686 14.0321 4.10088 13.6696 4.10088C13.307 4.10088 12.9593 3.95686 12.703 3.7005C12.4466 3.44415 12.3026 3.09646 12.3026 2.73392C12.3026 2.37138 12.4466 2.02369 12.703 1.76733C12.9593 1.51098 13.307 1.36696 13.6696 1.36696C14.0321 1.36696 14.3798 1.51098 14.6362 1.76733C14.8925 2.02369 15.0365 2.37138 15.0365 2.73392ZM9.5687 2.73392C9.5687 3.09646 9.42468 3.44415 9.16832 3.7005C8.91197 3.95686 8.56428 4.10088 8.20174 4.10088C7.8392 4.10088 7.49151 3.95686 7.23515 3.7005C6.9788 3.44415 6.83478 3.09646 6.83478 2.73392C6.83478 2.37138 6.9788 2.02369 7.23515 1.76733C7.49151 1.51098 7.8392 1.36696 8.20174 1.36696C8.56428 1.36696 8.91197 1.51098 9.16832 1.76733C9.42468 2.02369 9.5687 2.37138 9.5687 2.73392ZM4.10086 2.73392C4.10086 3.09646 3.95684 3.44415 3.70049 3.7005C3.44413 3.95686 3.09644 4.10088 2.7339 4.10088C2.37136 4.10088 2.02367 3.95686 1.76732 3.7005C1.51096 3.44415 1.36694 3.09646 1.36694 2.73392C1.36694 2.37138 1.51096 2.02369 1.76732 1.76733C2.02367 1.51098 2.37136 1.36696 2.7339 1.36696C3.09644 1.36696 3.44413 1.51098 3.70049 1.76733C3.95684 2.02369 4.10086 2.37138 4.10086 2.73392ZM9.5687 13.6696C9.5687 14.0321 9.42468 14.3798 9.16832 14.6362C8.91197 14.8925 8.56428 15.0365 8.20174 15.0365C7.8392 15.0365 7.49151 14.8925 7.23515 14.6362C6.9788 14.3798 6.83478 14.0321 6.83478 13.6696C6.83478 13.3071 6.9788 12.9594 7.23515 12.703C7.49151 12.4467 7.8392 12.3026 8.20174 12.3026C8.56428 12.3026 8.91197 12.4467 9.16832 12.703C9.42468 12.9594 9.5687 13.3071 9.5687 13.6696ZM4.10086 13.6696C4.10086 14.0321 3.95684 14.3798 3.70049 14.6362C3.44413 14.8925 3.09644 15.0365 2.7339 15.0365C2.37136 15.0365 2.02367 14.8925 1.76732 14.6362C1.51096 14.3798 1.36694 14.0321 1.36694 13.6696C1.36694 13.3071 1.51096 12.9594 1.76732 12.703C2.02367 12.4467 2.37136 12.3026 2.7339 12.3026C3.09644 12.3026 3.44413 12.4467 3.70049 12.703C3.95684 12.9594 4.10086 13.3071 4.10086 13.6696ZM13.6696 15.0365C14.0321 15.0365 14.3798 14.8925 14.6362 14.6362C14.8925 14.3798 15.0365 14.0321 15.0365 13.6696C15.0365 13.3071 14.8925 12.9594 14.6362 12.703C14.3798 12.4467 14.0321 12.3026 13.6696 12.3026C13.307 12.3026 12.9593 12.4467 12.703 12.703C12.4466 12.9594 12.3026 13.3071 12.3026 13.6696C12.3026 14.0321 12.4466 14.3798 12.703 14.6362C12.9593 14.8925 13.307 15.0365 13.6696 15.0365Z" fill="white" stroke="white" stroke-width="0.916667" stroke-linecap="round" stroke-linejoin="round"/>
</mask>
<g mask="url(#mask0_99_7246)">
<path d="M0 0H16.4035V16.4035H0V0Z" fill="#001D42"/>
</g>
</svg>
