<svg width="17" height="17" viewBox="0 0 17 17" fill="none" xmlns="http://www.w3.org/2000/svg">
<path d="M7.51826 12.7966L5.7583 14.5224C5.633 14.6477 5.47648 14.7103 5.28875 14.7103C5.10056 14.7103 4.94382 14.642 4.81852 14.5053C4.68182 14.38 4.61347 14.2235 4.61347 14.0357C4.61347 13.8476 4.68182 13.6851 4.81852 13.5484L7.51826 10.8487V9.48172H6.1513L3.43447 12.1986C3.30916 12.3239 3.15265 12.3865 2.96492 12.3865C2.77673 12.3865 2.61429 12.3182 2.4776 12.1815C2.35229 12.0562 2.28964 11.8994 2.28964 11.7112C2.28964 11.5235 2.35229 11.367 2.4776 11.2417L4.20338 9.48172H2.03334C1.83968 9.48172 1.6802 9.41611 1.5549 9.28488C1.4296 9.15411 1.36694 8.9919 1.36694 8.79824C1.36694 8.60459 1.43256 8.44215 1.56379 8.31092C1.69456 8.18015 1.85677 8.11476 2.05042 8.11476H4.20338L2.4776 6.37189C2.35229 6.24659 2.28964 6.08984 2.28964 5.90166C2.28964 5.71393 2.35799 5.55172 2.49468 5.41502C2.61999 5.28971 2.77673 5.22706 2.96492 5.22706C3.15265 5.22706 3.31486 5.28971 3.45156 5.41502L6.1513 8.11476H7.51826V6.7478L4.80143 4.04806C4.67612 3.92276 4.61347 3.76601 4.61347 3.57783C4.61347 3.3901 4.68182 3.22788 4.81852 3.09119C4.94382 2.96588 5.10056 2.90323 5.28875 2.90323C5.47648 2.90323 5.633 2.96588 5.7583 3.09119L7.51826 4.79989V2.64693C7.51826 2.45327 7.58387 2.29083 7.7151 2.15961C7.84587 2.02883 8.00809 1.96345 8.20174 1.96345C8.39539 1.96345 8.55783 2.02883 8.68906 2.15961C8.81983 2.29083 8.88522 2.45327 8.88522 2.64693V4.79989L10.6281 3.09119C10.7534 2.96588 10.9101 2.90323 11.0983 2.90323C11.2861 2.90323 11.4483 2.96588 11.585 3.09119C11.7103 3.22788 11.7729 3.3901 11.7729 3.57783C11.7729 3.76601 11.7103 3.92276 11.585 4.04806L8.88522 6.7478V8.11476H10.2522L12.9519 5.41502C13.0772 5.28971 13.234 5.22706 13.4222 5.22706C13.6099 5.22706 13.7721 5.29541 13.9088 5.43211C14.0341 5.55741 14.0968 5.71393 14.0968 5.90166C14.0968 6.08984 14.0341 6.24659 13.9088 6.37189L12.2001 8.11476H14.3531C14.5467 8.11476 14.7089 8.18015 14.8397 8.31092C14.9709 8.44215 15.0365 8.60459 15.0365 8.79824C15.0365 8.9919 14.9709 9.15411 14.8397 9.28488C14.7089 9.41611 14.5467 9.48172 14.3531 9.48172H12.2001L13.9088 11.2417C14.0341 11.367 14.0968 11.5235 14.0968 11.7112C14.0968 11.8994 14.0341 12.0562 13.9088 12.1815C13.7721 12.3182 13.6099 12.3865 13.4222 12.3865C13.234 12.3865 13.0772 12.3182 12.9519 12.1815L10.2522 9.48172H8.88522V10.8487L11.585 13.5655C11.7103 13.6908 11.7729 13.8476 11.7729 14.0357C11.7729 14.2235 11.7046 14.3857 11.5679 14.5224C11.4426 14.6477 11.2861 14.7103 11.0983 14.7103C10.9101 14.7103 10.7534 14.6477 10.6281 14.5224L8.88522 12.7966V14.9666C8.88522 15.1603 8.81983 15.3198 8.68906 15.4451C8.55783 15.5704 8.39539 15.633 8.20174 15.633C8.00809 15.633 7.84587 15.5674 7.7151 15.4362C7.58387 15.3054 7.51826 15.1432 7.51826 14.9496V12.7966Z" fill="#001D42"/>
</svg>
